<?xml version="1.0" standalone="no"?>
<!DOCTYPE svg PUBLIC "-//W3C//DTD SVG 1.1//EN" "http://www.w3.org/Graphics/SVG/1.1/DTD/svg11.dtd">
<!--Generator: Xara Designer (www.xara.com), SVG filter version: 6.4.0.3-->
<svg fill="none" fill-rule="evenodd" stroke="black" stroke-width="0.501" stroke-linejoin="bevel" stroke-miterlimit="10" font-family="Times New Roman" font-size="16" style="font-variant-ligatures:none" xmlns:xlink="http://www.w3.org/1999/xlink" xmlns="http://www.w3.org/2000/svg" version="1.1" overflow="visible" width="12pt" height="12pt" viewBox="67.437 -1042.6 12 12">
 <defs>
	</defs>
 <g id="Layer 1" transform="scale(1 -1)">
  <a xlink:href="mailto:agent0007@gmail.com" target="_self">
   <path d="M 76.436,1036.87 C 73.709,1036.87 73.709,1036.87 73.709,1036.87 C 73.709,1039.6 73.709,1039.6 73.709,1039.6 C 73.709,1039.73 73.572,1039.87 73.437,1039.87 C 73.301,1039.87 73.164,1039.73 73.164,1039.6 C 73.164,1036.87 73.164,1036.87 73.164,1036.87 C 70.437,1036.87 70.437,1036.87 70.437,1036.87 C 70.301,1036.87 70.163,1036.73 70.163,1036.6 C 70.163,1036.46 70.301,1036.32 70.437,1036.32 C 73.164,1036.32 73.164,1036.32 73.164,1036.32 C 73.164,1033.6 73.164,1033.6 73.164,1033.6 C 73.164,1033.46 73.301,1033.32 73.437,1033.32 C 73.572,1033.32 73.709,1033.46 73.709,1033.6 C 73.709,1036.32 73.709,1036.32 73.709,1036.32 C 76.436,1036.32 76.436,1036.32 76.436,1036.32 C 76.572,1036.32 76.709,1036.46 76.709,1036.6 C 76.709,1036.73 76.572,1036.87 76.436,1036.87 M 73.437,1042.6 C 70.096,1042.6 67.437,1039.94 67.437,1036.6 C 67.437,1033.26 70.096,1030.6 73.437,1030.6 C 76.777,1030.6 79.437,1033.26 79.437,1036.6 C 79.437,1039.94 76.777,1042.6 73.437,1042.6 M 73.437,1031.14 C 70.437,1031.14 67.982,1033.6 67.982,1036.6 C 67.982,1039.6 70.437,1042.05 73.437,1042.05 C 76.436,1042.05 78.892,1039.6 78.892,1036.6 C 78.892,1033.6 76.436,1031.14 73.437,1031.14" stroke="none" fill="#44546a" stroke-linejoin="round"/>
  </a>
 </g>
</svg>
