<?xml version="1.0" standalone="no"?>
<!DOCTYPE svg PUBLIC "-//W3C//DTD SVG 1.1//EN" "http://www.w3.org/Graphics/SVG/1.1/DTD/svg11.dtd">
<!--Generator: Xara Designer (www.xara.com), SVG filter version: 6.4.0.3-->
<svg fill="none" fill-rule="evenodd" stroke="black" stroke-width="0.501" stroke-linejoin="bevel" stroke-miterlimit="10" font-family="Times New Roman" font-size="16" style="font-variant-ligatures:none" xmlns:xlink="http://www.w3.org/1999/xlink" xmlns="http://www.w3.org/2000/svg" version="1.1" overflow="visible" width="12pt" height="12pt" viewBox="67.437 -1026.98 12 12">
 <defs>
	</defs>
 <g id="Layer 1" transform="scale(1 -1)">
  <a xlink:href="mailto:agent0007@gmail.com" target="_self">
   <path d="M 76.436,1021.25 C 70.437,1021.25 70.437,1021.25 70.437,1021.25 C 70.3,1021.25 70.163,1021.11 70.163,1020.98 C 70.163,1020.84 70.3,1020.7 70.437,1020.7 C 76.436,1020.7 76.436,1020.7 76.436,1020.7 C 76.573,1020.7 76.71,1020.84 76.71,1020.98 C 76.71,1021.11 76.573,1021.25 76.436,1021.25 M 73.437,1026.98 C 70.096,1026.98 67.437,1024.32 67.437,1020.98 C 67.437,1017.64 70.096,1014.98 73.437,1014.98 C 76.778,1014.98 79.437,1017.64 79.437,1020.98 C 79.437,1024.32 76.778,1026.98 73.437,1026.98 M 73.437,1015.52 C 70.437,1015.52 67.981,1017.98 67.981,1020.98 C 67.981,1023.98 70.437,1026.43 73.437,1026.43 C 76.436,1026.43 78.892,1023.98 78.892,1020.98 C 78.892,1017.98 76.436,1015.52 73.437,1015.52" stroke="none" fill="#44546a" stroke-linejoin="round"/>
  </a>
 </g>
</svg>
